Coordinates
version=1
nRows=13
nColumns=22
inDegrees=yes

Units are S.I. units (second, meters, Newtons, ...)
If the header above contains a line with 'inDegrees', this indicates whether rotational values are in degrees (yes) or radians (no).

endheader
time	pelvis_tilt	pelvis_list	pelvis_rotation	pelvis_tx	pelvis_ty	pelvis_tz	hip_flexion_r	hip_adduction_r	hip_rotation_r	knee_angle_r	ankle_angle_r	subtalar_angle_r	hip_flexion_l	hip_adduction_l	hip_rotation_l	knee_angle_l	ankle_angle_l	subtalar_angle_l	lumbar_extension	lumbar_bending	lumbar_rotation
      2.73000000	      6.53564560	      3.90600679	    101.80989167	      0.39361168	      0.93565655	     -0.50241184	     -3.71388407	      9.02119844	    -18.86160104	     -6.14225458	      7.92998983	     -0.91046921	     12.62825210	     -8.10620194	      1.96082302	    -32.99862554	     15.58360560	     -2.56406383	     -9.64692873	      4.62959677	     -3.40770900
      2.74000000	      6.34174889	      3.54452318	    101.72948984	      0.39306051	      0.93581100	     -0.50354878	     -3.64765436	      8.76377562	    -18.74405739	     -5.77655299	      7.80378760	     -0.84212028	     12.50805568	     -7.82187900	      1.69870462	    -32.40018153	     15.45656305	     -2.60066031	     -9.14372996	      4.27974413	     -3.40031127
      2.75000000	      6.11331198	      3.16566950	    101.62573966	      0.39252404	      0.93601951	     -0.50459328	     -3.53241986	      8.45323618	    -18.63318666	     -5.47083578	      7.72466425	     -0.75225133	     12.40177533	     -7.50974871	      1.38515259	    -31.79003618	     15.24604494	     -2.63496342	     -8.64525792	      3.88642240	     -3.34712070
      2.76000000	      5.87379614	      2.78202722	    101.53733219	      0.39193320	      0.93626698	     -0.50551674	     -3.37737484	      8.11989531	    -18.52330311	     -5.21597282	      7.58590603	     -0.69940639	     12.30001693	     -7.17486073	      1.13150397	    -31.15128224	     15.05014054	     -2.63112616	     -8.16121867	      3.49054109	     -3.35523401
      2.77000000	      5.61938684	      2.40080542	    101.42258720	      0.39134435	      0.93654355	     -0.50634140	     -3.17897190	      7.75311452	    -18.41711051	     -5.04249886	      7.49897990	     -0.63146377	     12.19295133	     -6.83179996	      0.86077898	    -30.49979748	     14.79551414	     -2.60048045	     -7.70271585	      3.08348204	     -3.32379822
      2.78000000	      5.36129865	      2.03348554	    101.28832972	      0.39074584	      0.93682757	     -0.50706554	     -2.94892499	      7.36824645	    -18.32222362	     -4.94514678	      7.47304410	     -0.53251452	     12.07949161	     -6.49444047	      0.57105785	    -29.85197284	     14.52100426	     -2.52349089	     -7.28166081	      2.68274164	     -3.26334880
      2.79000000	      5.11971637	      1.69631106	    101.14718901	      0.39010353	      0.93714003	     -0.50764403	     -2.70093285	      6.99053244	    -18.20018630	     -4.91602571	      7.38141075	     -0.45681382	     11.93391737	     -6.16532590	      0.34632206	    -29.17723313	     14.27604796	     -2.45076050	     -6.91882699	      2.32636326	     -3.23351427
      2.80000000	      4.88487408	      1.38933681	    100.98200766	      0.38948395	      0.93745588	     -0.50811705	     -2.44181469	      6.61353529	    -18.07651497	     -4.95074421	      7.34040631	     -0.35997083	     11.76424824	     -5.85480997	      0.08905569	    -28.50436125	     14.03207207	     -2.36869117	     -6.61411781	      1.98980522	     -3.17811287
      2.81000000	      4.66410487	      1.12021447	    100.79821312	      0.38886451	      0.93777642	     -0.50848425	     -2.18636390	      6.24810495	    -17.94522208	     -5.03350710	      7.31064730	     -0.25033195	     11.56242011	     -5.56447812	     -0.18447095	    -27.83235916	     13.81161783	     -2.29409256	     -6.37185408	      1.69160316	     -3.11419421
      2.82000000	      4.46235969	      0.89118224	    100.60052504	      0.38829569	      0.93810800	     -0.50873146	     -1.93525141	      5.90556744	    -17.79729105	     -5.16149359	      7.28113407	     -0.14120277	     11.32503665	     -5.30058459	     -0.46647406	    -27.15281380	     13.61215178	     -2.24806475	     -6.19740282	      1.42675788	     -3.04695080
      2.83000000	      4.27413828	      0.70255961	    100.38642960	      0.38774786	      0.93844400	     -0.50889220	     -1.70106353	      5.58020658	    -17.64610468	     -5.31890612	      7.25787341	     -0.03001667	     11.04798794	     -5.05638803	     -0.77456335	    -26.46954668	     13.44329815	     -2.23146560	     -6.08402613	      1.19801559	     -2.97751984
      2.84000000	      4.09908929	      0.55049898	    100.16218951	      0.38725327	      0.93878386	     -0.50896216	     -1.48069138	      5.27536689	    -17.48988318	     -5.50242290	      7.23974815	      0.07312730	     10.73609855	     -4.83131155	     -1.09744576	    -25.77882628	     13.29244738	     -2.24804464	     -6.02795935	      0.99258121	     -2.90954612
      2.85000000	      3.93443866	      0.43304198	     99.93488626	      0.38678675	      0.93912123	     -0.50895783	     -1.27863459	      4.98825858	    -17.33984885	     -5.70365934	      7.23024045	      0.16526981	     10.39349431	     -4.62058576	     -1.43023379	    -25.08641369	     13.16123541	     -2.29238614	     -6.02146600	      0.80985860	     -2.85036525
